<?xml version="1.0"?>
<svg xmlns="http://www.w3.org/2000/svg" version="1.1" width="1233.56530761719pt" height="676.838928222656pt" viewBox="16.8307085037231 -102.675722790171 1233.56529808044 676.83895530782" preserveAspectRatio="none" xmlns:xlink="http://www.w3.org/1999/xlink">
  <defs>
  </defs>
  <path d="M193.799987792969,235.275009155273 C203.174987792969,235.275009155273 203.174987792969,235.275009155273 206.849990844727,235.275009155273 " stroke="#6E6E6E" fill="none" stroke-width="1" stroke-opacity="1" />
  <path d="M212.549987792969,235.274993896484 L206.849975585938,237.494995117188 L206.849975585938,233.05500793457 L212.549987792969,235.274993896484 " stroke="none" fill="#6E6E6E" fill-rule="evenodd" stroke-width="0" fill-opacity="1" />
  <path d="M212.549987792969,235.274993896484 L206.849975585938,237.494995117188 L206.849975585938,233.05500793457 L212.549987792969,235.274993896484 " stroke="#6E6E6E" fill="none" stroke-width="1" stroke-opacity="1" />
  <path d="M564.708862304688,298.306060791016 C572.208862304688,298.338775634766 572.208862304688,298.338775634766 572.208862304688,298.378143310547 C572.208862304688,298.417510986328 572.208862304688,298.417510986328 574.021789550781,298.425415039063 " stroke="#6E6E6E" fill="none" stroke-width="1" stroke-opacity="1" />
  <path d="M579.721740722656,298.450317382813 L574.012145996094,300.645416259766 L574.031494140625,296.205474853516 L579.721740722656,298.450317382813 " stroke="none" fill="#6E6E6E" fill-rule="evenodd" stroke-width="0" fill-opacity="1" />
  <path d="M579.721740722656,298.450317382813 L574.012145996094,300.645416259766 L574.031494140625,296.205474853516 L579.721740722656,298.450317382813 " stroke="#6E6E6E" fill="none" stroke-width="1" stroke-opacity="1" />
  <path d="M751.008911132813,298.143737792969 C758.508911132813,298.143737792969 758.508911132813,298.143737792969 760.308898925781,298.143737792969 " stroke="#6E6E6E" fill="none" stroke-width="1" stroke-opacity="1" />
  <path d="M766.008850097656,298.143707275391 L760.308898925781,300.363708496094 L760.308898925781,295.923706054688 L766.008850097656,298.143707275391 " stroke="none" fill="#6E6E6E" fill-rule="evenodd" stroke-width="0" fill-opacity="1" />
  <path d="M766.008850097656,298.143707275391 L760.308898925781,300.363708496094 L760.308898925781,295.923706054688 L766.008850097656,298.143707275391 " stroke="#6E6E6E" fill="none" stroke-width="1" stroke-opacity="1" />
  <path d="M654.097961425781,298.474426269531 C665.35888671875,298.4326171875 665.35888671875,298.4326171875 665.35888671875,298.378143310547 C665.35888671875,298.323699951172 665.35888671875,298.323699951172 670.908874511719,298.303070068359 " stroke="#6E6E6E" fill="none" stroke-width="1" stroke-opacity="1" />
  <path d="M676.60888671875,298.281921386719 L670.917175292969,300.523071289063 L670.900695800781,296.083099365234 L676.60888671875,298.281921386719 " stroke="none" fill="#6E6E6E" fill-rule="evenodd" stroke-width="0" fill-opacity="1" />
  <path d="M676.60888671875,298.281921386719 L670.917175292969,300.523071289063 L670.900695800781,296.083099365234 L676.60888671875,298.281921386719 " stroke="#6E6E6E" fill="none" stroke-width="1" stroke-opacity="1" />
  <path d="M961.526733398438,298.306060791016 C969.026733398438,298.338775634766 969.026733398438,298.338775634766 969.026733398438,298.378143310547 C969.026733398438,298.417510986328 969.026733398438,298.417510986328 970.839660644531,298.425415039063 " stroke="#6E6E6E" fill="none" stroke-width="1" stroke-opacity="1" />
  <path d="M976.53955078125,298.450317382813 L970.829956054688,300.645416259766 L970.849304199219,296.205474853516 L976.53955078125,298.450317382813 " stroke="none" fill="#6E6E6E" fill-rule="evenodd" stroke-width="0" fill-opacity="1" />
  <path d="M976.53955078125,298.450317382813 L970.829956054688,300.645416259766 L970.849304199219,296.205474853516 L976.53955078125,298.450317382813 " stroke="#6E6E6E" fill="none" stroke-width="1" stroke-opacity="1" />
  <path d="M872.126770019531,298.143737792969 C879.626770019531,298.143737792969 879.626770019531,298.143737792969 881.4267578125,298.143737792969 " stroke="#6E6E6E" fill="none" stroke-width="1" stroke-opacity="1" />
  <path d="M887.126708984375,298.143707275391 L881.4267578125,300.363708496094 L881.4267578125,295.923706054688 L887.126708984375,298.143707275391 " stroke="none" fill="#6E6E6E" fill-rule="evenodd" stroke-width="0" fill-opacity="1" />
  <path d="M887.126708984375,298.143707275391 L881.4267578125,300.363708496094 L881.4267578125,295.923706054688 L887.126708984375,298.143707275391 " stroke="#6E6E6E" fill="none" stroke-width="1" stroke-opacity="1" />
  <path d="M380.100006103516,298.143737792969 C387.599975585938,298.143737792969 387.599975585938,298.143737792969 389.399993896484,298.143737792969 " stroke="#6E6E6E" fill="none" stroke-width="1" stroke-opacity="1" />
  <path d="M395.099945068359,298.143707275391 L389.399963378906,300.363708496094 L389.399963378906,295.923706054688 L395.099945068359,298.143707275391 " stroke="none" fill="#6E6E6E" fill-rule="evenodd" stroke-width="0" fill-opacity="1" />
  <path d="M395.099945068359,298.143707275391 L389.399963378906,300.363708496094 L389.399963378906,295.923706054688 L395.099945068359,298.143707275391 " stroke="#6E6E6E" fill="none" stroke-width="1" stroke-opacity="1" />
  <path d="M283.189025878906,298.474426269531 C294.449981689453,298.4326171875 294.449981689453,298.4326171875 294.449981689453,298.378143310547 C294.449981689453,298.323699951172 294.449981689453,298.323699951172 300.000030517578,298.303070068359 " stroke="#6E6E6E" fill="none" stroke-width="1" stroke-opacity="1" />
  <path d="M305.700012207031,298.281921386719 L300.008270263672,300.523071289063 L299.991790771484,296.083099365234 L305.700012207031,298.281921386719 " stroke="none" fill="#6E6E6E" fill-rule="evenodd" stroke-width="0" fill-opacity="1" />
  <path d="M305.700012207031,298.281921386719 L300.008270263672,300.523071289063 L299.991790771484,296.083099365234 L305.700012207031,298.281921386719 " stroke="#6E6E6E" fill="none" stroke-width="1" stroke-opacity="1" />
  <path d="M475.308868408203,298.143737792969 C482.808868408203,298.143737792969 482.808868408203,298.143737792969 484.60888671875,298.143737792969 " stroke="#6E6E6E" fill="none" stroke-width="1" stroke-opacity="1" />
  <path d="M490.308868408203,298.143707275391 L484.60888671875,300.363708496094 L484.60888671875,295.923706054688 L490.308868408203,298.143707275391 " stroke="none" fill="#6E6E6E" fill-rule="evenodd" stroke-width="0" fill-opacity="1" />
  <path d="M490.308868408203,298.143707275391 L484.60888671875,300.363708496094 L484.60888671875,295.923706054688 L490.308868408203,298.143707275391 " stroke="#6E6E6E" fill="none" stroke-width="1" stroke-opacity="1" />
  <path d="M96.8890533447266,235.605667114258 C108.149993896484,235.563858032227 108.149993896484,235.563858032227 108.149993896484,235.509399414063 C108.149993896484,235.454956054688 108.149993896484,235.454956054688 113.700035095215,235.434326171875 " stroke="#6E6E6E" fill="none" stroke-width="1" stroke-opacity="1" />
  <path d="M119.399993896484,235.413162231445 L113.708274841309,237.654312133789 L113.691787719727,233.21435546875 L119.399993896484,235.413162231445 " stroke="none" fill="#6E6E6E" fill-rule="evenodd" stroke-width="0" fill-opacity="1" />
  <path d="M119.399993896484,235.413162231445 L113.708274841309,237.654312133789 L113.691787719727,233.21435546875 L119.399993896484,235.413162231445 " stroke="#6E6E6E" fill="none" stroke-width="1" stroke-opacity="1" />
  <path d="M266.743560791016,256.243286132813 C275.225677490234,266.709381103516 275.225677490234,266.709381103516 292.472534179688,266.709381103516 C309.719360351563,266.709381103516 309.719360351563,266.709381103516 313.745483398438,270.523590087891 " stroke="#6E6E6E" fill="none" stroke-width="1" stroke-opacity="1" />
  <path d="M317.883392333984,274.443725585938 L312.218688964844,272.135192871094 L315.272277832031,268.911987304688 L317.883392333984,274.443725585938 " stroke="none" fill="#6E6E6E" fill-rule="evenodd" stroke-width="0" fill-opacity="1" />
  <path d="M317.883392333984,274.443725585938 L312.218688964844,272.135192871094 L315.272277832031,268.911987304688 L317.883392333984,274.443725585938 " stroke="#6E6E6E" fill="none" stroke-width="1" stroke-opacity="1" />
  <path d="M262.980133056641,340.97705078125 C271.829437255859,330.046875 271.829437255859,330.046875 290.564819335938,330.046875 C309.300201416016,330.046875 309.300201416016,330.046875 313.806060791016,325.768524169922 " stroke="#6E6E6E" fill="none" stroke-width="1" stroke-opacity="1" />
  <path d="M317.939575195313,321.84375 L315.334655761719,327.37841796875 L312.277435302734,324.158630371094 L317.939575195313,321.84375 " stroke="none" fill="#6E6E6E" fill-rule="evenodd" stroke-width="0" fill-opacity="1" />
  <path d="M317.939575195313,321.84375 L315.334655761719,327.37841796875 L312.277435302734,324.158630371094 L317.939575195313,321.84375 " stroke="#6E6E6E" fill="none" stroke-width="1" stroke-opacity="1" />
  <path d="M255.737152099609,402.511993408203 C262.191833496094,387.414276123047 262.191833496094,387.414276123047 293.514678955078,387.414276123047 C324.837524414063,387.414276123047 324.837524414063,387.414276123047 336.974273681641,327.430541992188 " stroke="#6E6E6E" fill="none" stroke-width="1" stroke-opacity="1" />
  <path d="M338.104675292969,321.84375 L339.150177001953,327.870788574219 L334.798370361328,326.990264892578 L338.104675292969,321.84375 " stroke="none" fill="#6E6E6E" fill-rule="evenodd" stroke-width="0" fill-opacity="1" />
  <path d="M338.104675292969,321.84375 L339.150177001953,327.870788574219 L334.798370361328,326.990264892578 L338.104675292969,321.84375 " stroke="#6E6E6E" fill="none" stroke-width="1" stroke-opacity="1" />
  <path d="M961.526733398438,172.171875 C970.901733398438,172.171875 970.901733398438,172.171875 974.576721191406,172.171875 " stroke="#6E6E6E" fill="none" stroke-width="1" stroke-opacity="1" />
  <path d="M980.276672363281,172.171859741211 L974.576721191406,174.391860961914 L974.576721191406,169.951873779297 L980.276672363281,172.171859741211 " stroke="none" fill="#6E6E6E" fill-rule="evenodd" stroke-width="0" fill-opacity="1" />
  <path d="M980.276672363281,172.171859741211 L974.576721191406,174.391860961914 L974.576721191406,169.951873779297 L980.276672363281,172.171859741211 " stroke="#6E6E6E" fill="none" stroke-width="1" stroke-opacity="1" />
  <path d="M825.949462890625,274.753601074219 C837.564514160156,235.275009155273 837.564514160156,235.275009155273 871.044067382813,235.275009155273 C904.523620605469,235.275009155273 904.523620605469,235.275009155273 915.182434082031,201.310363769531 " stroke="#6E6E6E" fill="none" stroke-width="1" stroke-opacity="1" />
  <path d="M916.88916015625,195.871887207031 L917.300598144531,201.975082397461 L913.064331054688,200.645645141602 L916.88916015625,195.871887207031 " stroke="none" fill="#6E6E6E" fill-rule="evenodd" stroke-width="0" fill-opacity="1" />
  <path d="M916.88916015625,195.871887207031 L917.300598144531,201.975082397461 L913.064331054688,200.645645141602 L916.88916015625,195.871887207031 " stroke="#6E6E6E" fill="none" stroke-width="1" stroke-opacity="1" />
  <path d="M825.501770019531,69.4867858886719 C836.470275878906,109.185935974121 836.470275878906,109.185935974121 870.496948242188,109.185935974121 C904.523620605469,109.185935974121 904.523620605469,109.185935974121 915.165710449219,143.034301757813 " stroke="#6E6E6E" fill="none" stroke-width="1" stroke-opacity="1" />
  <path d="M916.875305175781,148.471862792969 L913.047912597656,143.700134277344 L917.283508300781,142.368438720703 L916.875305175781,148.471862792969 " stroke="none" fill="#6E6E6E" fill-rule="evenodd" stroke-width="0" fill-opacity="1" />
  <path d="M916.875305175781,148.471862792969 L913.047912597656,143.700134277344 L917.283508300781,142.368438720703 L916.875305175781,148.471862792969 " stroke="#6E6E6E" fill="none" stroke-width="1" stroke-opacity="1" />
  <path d="M1147.82666015625,172.334197998047 C1155.32666015625,172.366928100586 1155.32666015625,172.366928100586 1155.32666015625,172.406295776367 C1155.32666015625,172.445648193359 1155.32666015625,172.445648193359 1157.13952636719,172.453552246094 " stroke="#6E6E6E" fill="none" stroke-width="1" stroke-opacity="1" />
  <path d="M1162.83947753906,172.478424072266 L1157.1298828125,174.673538208008 L1157.14929199219,170.233581542969 L1162.83947753906,172.478424072266 " stroke="none" fill="#6E6E6E" fill-rule="evenodd" stroke-width="0" fill-opacity="1" />
  <path d="M1162.83947753906,172.478424072266 L1157.1298828125,174.673538208008 L1157.14929199219,170.233581542969 L1162.83947753906,172.478424072266 " stroke="#6E6E6E" fill="none" stroke-width="1" stroke-opacity="1" />
  <path d="M1054.67663574219,172.171875 C1064.05163574219,172.171875 1064.05163574219,172.171875 1067.72668457031,172.171875 " stroke="#6E6E6E" fill="none" stroke-width="1" stroke-opacity="1" />
  <path d="M1073.42663574219,172.171859741211 L1067.72668457031,174.391860961914 L1067.72668457031,169.951873779297 L1073.42663574219,172.171859741211 " stroke="none" fill="#6E6E6E" fill-rule="evenodd" stroke-width="0" fill-opacity="1" />
  <path d="M1073.42663574219,172.171859741211 L1067.72668457031,174.391860961914 L1067.72668457031,169.951873779297 L1073.42663574219,172.171859741211 " stroke="#6E6E6E" fill="none" stroke-width="1" stroke-opacity="1" />
  <path d="M127.903930664063,211.575012207031 L185.296051025391,211.575012207031 L185.296035766602,211.575012207031 C189.992614746094,211.574996948242 193.79997253418,215.382339477539 193.79997253418,220.07893371582 C193.79997253418,220.07893371582 193.79997253418,220.078948974609 193.79997253418,220.078948974609 L193.799987792969,220.078948974609 L193.799987792969,250.471069335938 L193.79997253418,250.471069335938 C193.79997253418,255.167663574219 189.992645263672,258.975006103516 185.296051025391,258.975006103516 L185.296051025391,258.975006103516 L127.903930664063,258.975006103516 L127.903930664063,258.975006103516 C123.207336425781,258.975006103516 119.399993896484,255.167663574219 119.399993896484,250.471069335938 L119.399993896484,220.078948974609 L119.39998626709,220.078948974609 C119.39998626709,215.382354736328 123.207321166992,211.575012207031 127.903915405273,211.574996948242 " stroke="none" fill="#F2E279" fill-rule="evenodd" stroke-width="0" fill-opacity="1" />
  <text x="6.62618923187256" y="36.8967208862305" dx="0" dy="0" font-family="Arial" font-size="8.99999973177911pt" fill="#000000" style="text-anchor:start" transform="matrix(0.750000 0.000000 0.000000 0.750000 119.399993896484 211.575012207031)">Copy Features</text>
  <path d="M127.903930664063,211.575012207031 L185.296051025391,211.575012207031 L185.296035766602,211.575012207031 C189.992614746094,211.574996948242 193.79997253418,215.382339477539 193.79997253418,220.07893371582 C193.79997253418,220.07893371582 193.79997253418,220.078948974609 193.79997253418,220.078948974609 L193.799987792969,220.078948974609 L193.799987792969,250.471069335938 L193.79997253418,250.471069335938 C193.79997253418,255.167663574219 189.992645263672,258.975006103516 185.296051025391,258.975006103516 L185.296051025391,258.975006103516 L127.903930664063,258.975006103516 L127.903930664063,258.975006103516 C123.207336425781,258.975006103516 119.399993896484,255.167663574219 119.399993896484,250.471069335938 L119.399993896484,220.078948974609 L119.39998626709,220.078948974609 C119.39998626709,215.382354736328 123.207321166992,211.575012207031 127.903915405273,211.574996948242 " stroke="none" fill="none" stroke-width="0.75" stroke-opacity="0" />
  <path d="M286.949951171875,235.274993896484 C286.949951171875,248.364151000977 270.294952392578,258.975006103516 249.75,258.975006103516 C229.205001831055,258.975006103516 212.549987792969,248.364166259766 212.54997253418,235.275024414063 L212.54997253418,235.275024414063 C212.549957275391,222.18586730957 229.204956054688,211.575012207031 249.749938964844,211.575012207031 C270.294921875,211.574996948242 286.949951171875,222.185836791992 286.949951171875,235.275009155273 C286.949951171875,235.275009155273 286.949951171875,235.275009155273 286.949951171875,235.275009155273 " stroke="none" fill="#83CC7C" fill-rule="evenodd" stroke-width="0" fill-opacity="1" />
  <text x="7.61952257156372" y="36.8967208862305" dx="0" dy="0" font-family="Arial" font-size="8.99999973177911pt" fill="#000000" style="text-anchor:start" transform="matrix(0.750000 0.000000 0.000000 0.750000 212.549987792969 211.575012207031)">Places Copied</text>
  <path d="M286.949951171875,235.274993896484 C286.949951171875,248.364151000977 270.294952392578,258.975006103516 249.75,258.975006103516 C229.205001831055,258.975006103516 212.549987792969,248.364166259766 212.54997253418,235.275024414063 L212.54997253418,235.275024414063 C212.549957275391,222.18586730957 229.204956054688,211.575012207031 249.749938964844,211.575012207031 C270.294921875,211.574996948242 286.949951171875,222.185836791992 286.949951171875,235.275009155273 C286.949951171875,235.275009155273 286.949951171875,235.275009155273 286.949951171875,235.275009155273 " stroke="none" fill="none" stroke-width="0.75" stroke-opacity="0" />
  <path d="M498.812835693359,274.443756103516 L556.204956054688,274.443756103516 L556.204895019531,274.443756103516 C560.901489257813,274.443725585938 564.708862304688,278.251068115234 564.708862304688,282.947662353516 C564.708862304688,282.947662353516 564.708862304688,282.947692871094 564.708862304688,282.947692871094 L564.708862304688,282.947692871094 L564.708862304688,313.339813232422 L564.708862304688,313.339813232422 C564.708862304688,318.036407470703 560.901550292969,321.84375 556.204956054688,321.84375 L556.204956054688,321.84375 L498.812835693359,321.84375 L498.812835693359,321.84375 C494.116241455078,321.84375 490.308898925781,318.036407470703 490.308898925781,313.339813232422 L490.308898925781,282.947692871094 L490.308868408203,282.947692871094 C490.308868408203,278.251098632813 494.1162109375,274.443756103516 498.812805175781,274.443725585938 " stroke="none" fill="#F2E279" fill-rule="evenodd" stroke-width="0" fill-opacity="1" />
  <text x="2.7288556098938" y="36.8967208862305" dx="0" dy="0" font-family="Arial" font-size="8.99999973177911pt" fill="#000000" style="text-anchor:start" transform="matrix(0.750000 0.000000 0.000000 0.750000 490.308898925781 274.443756103516)">Feature To Point</text>
  <path d="M498.812835693359,274.443756103516 L556.204956054688,274.443756103516 L556.204895019531,274.443756103516 C560.901489257813,274.443725585938 564.708862304688,278.251068115234 564.708862304688,282.947662353516 C564.708862304688,282.947662353516 564.708862304688,282.947692871094 564.708862304688,282.947692871094 L564.708862304688,282.947692871094 L564.708862304688,313.339813232422 L564.708862304688,313.339813232422 C564.708862304688,318.036407470703 560.901550292969,321.84375 556.204956054688,321.84375 L556.204956054688,321.84375 L498.812835693359,321.84375 L498.812835693359,321.84375 C494.116241455078,321.84375 490.308898925781,318.036407470703 490.308898925781,313.339813232422 L490.308898925781,282.947692871094 L490.308868408203,282.947692871094 C490.308868408203,278.251098632813 494.1162109375,274.443756103516 498.812805175781,274.443725585938 " stroke="none" fill="none" stroke-width="0.75" stroke-opacity="0" />
  <path d="M654.108825683594,298.612487792969 C654.108825683594,311.701629638672 637.453796386719,322.3125 616.908874511719,322.3125 C596.363830566406,322.3125 579.708862304688,311.70166015625 579.708801269531,298.612518310547 L579.708801269531,298.612518310547 C579.708801269531,285.523345947266 596.363830566406,274.912506103516 616.908813476563,274.912506103516 C637.453796386719,274.912475585938 654.108825683594,285.523315429688 654.108825683594,298.612487792969 C654.108825683594,298.612487792969 654.108825683594,298.612487792969 654.108825683594,298.612487792969 " stroke="none" fill="#83CC7C" fill-rule="evenodd" stroke-width="0" fill-opacity="1" />
  <text x="1.9528557062149" y="36.8967208862305" dx="0" dy="0" font-family="Arial" font-size="8.99999973177911pt" fill="#000000" style="text-anchor:start" transform="matrix(0.750000 0.000000 0.000000 0.750000 579.708862304688 274.912506103516)">Places as Points</text>
  <path d="M654.108825683594,298.612487792969 C654.108825683594,311.701629638672 637.453796386719,322.3125 616.908874511719,322.3125 C596.363830566406,322.3125 579.708862304688,311.70166015625 579.708801269531,298.612518310547 L579.708801269531,298.612518310547 C579.708801269531,285.523345947266 596.363830566406,274.912506103516 616.908813476563,274.912506103516 C637.453796386719,274.912475585938 654.108825683594,285.523315429688 654.108825683594,298.612487792969 C654.108825683594,298.612487792969 654.108825683594,298.612487792969 654.108825683594,298.612487792969 " stroke="none" fill="none" stroke-width="0.75" stroke-opacity="0" />
  <path d="M685.11279296875,274.443756103516 L742.504943847656,274.443756103516 L742.5048828125,274.443756103516 C747.201477050781,274.443725585938 751.008850097656,278.251068115234 751.008850097656,282.947662353516 C751.008850097656,282.947662353516 751.008850097656,282.947692871094 751.008850097656,282.947692871094 L751.008850097656,282.947692871094 L751.008850097656,313.339813232422 L751.008850097656,313.339813232422 C751.008850097656,318.036407470703 747.201538085938,321.84375 742.504943847656,321.84375 L742.504943847656,321.84375 L685.11279296875,321.84375 L685.11279296875,321.84375 C680.416198730469,321.84375 676.60888671875,318.036407470703 676.60888671875,313.339813232422 L676.60888671875,282.947692871094 L676.608825683594,282.947692871094 C676.608825683594,278.251098632813 680.416198730469,274.443756103516 685.11279296875,274.443725585938 " stroke="none" fill="#F2E279" fill-rule="evenodd" stroke-width="0" fill-opacity="1" />
  <text x="26.069522857666" y="29.9967193603516" dx="0" dy="0" font-family="Arial" font-size="8.99999973177911pt" fill="#000000" style="text-anchor:start" transform="matrix(0.750000 0.000000 0.000000 0.750000 676.60888671875 274.443756103516)">Add XY </text>
  <text x="13.6228551864624" y="43.7967185974121" dx="0" dy="0" font-family="Arial" font-size="8.99999973177911pt" fill="#000000" style="text-anchor:start" transform="matrix(0.750000 0.000000 0.000000 0.750000 676.60888671875 274.443756103516)">Coordinates</text>
  <path d="M685.11279296875,274.443756103516 L742.504943847656,274.443756103516 L742.5048828125,274.443756103516 C747.201477050781,274.443725585938 751.008850097656,278.251068115234 751.008850097656,282.947662353516 C751.008850097656,282.947662353516 751.008850097656,282.947692871094 751.008850097656,282.947692871094 L751.008850097656,282.947692871094 L751.008850097656,313.339813232422 L751.008850097656,313.339813232422 C751.008850097656,318.036407470703 747.201538085938,321.84375 742.504943847656,321.84375 L742.504943847656,321.84375 L685.11279296875,321.84375 L685.11279296875,321.84375 C680.416198730469,321.84375 676.60888671875,318.036407470703 676.60888671875,313.339813232422 L676.60888671875,282.947692871094 L676.608825683594,282.947692871094 C676.608825683594,278.251098632813 680.416198730469,274.443756103516 685.11279296875,274.443725585938 " stroke="none" fill="none" stroke-width="0.75" stroke-opacity="0" />
  <path d="M872.126708984375,298.143737792969 C872.126708984375,311.232879638672 848.371398925781,321.84375 819.067810058594,321.84375 C789.76416015625,321.84375 766.008911132813,311.232879638672 766.008911132813,298.143737792969 C766.008911132813,298.143737792969 766.008911132813,298.143737792969 766.008911132813,298.143737792969 L766.008911132813,298.143768310547 C766.008850097656,285.054595947266 789.764099121094,274.443756103516 819.067749023438,274.443756103516 C848.371398925781,274.443725585938 872.126647949219,285.054565429688 872.126708984375,298.143737792969 C872.126708984375,298.143737792969 872.126708984375,298.143737792969 872.126708984375,298.143737792969 " stroke="none" fill="#83CC7C" fill-rule="evenodd" stroke-width="0" fill-opacity="1" />
  <text x="8.76285552978516" y="29.9967193603516" dx="0" dy="0" font-family="Arial" font-size="8.99999973177911pt" fill="#000000" style="text-anchor:start" transform="matrix(0.750000 0.000000 0.000000 0.750000 766.008911132813 274.443756103516)">Places as Points (with </text>
  <text x="60.4548530578613" y="43.7967185974121" dx="0" dy="0" font-family="Arial" font-size="8.99999973177911pt" fill="#000000" style="text-anchor:start" transform="matrix(0.750000 0.000000 0.000000 0.750000 766.008911132813 274.443756103516)">xy)</text>
  <path d="M872.126708984375,298.143737792969 C872.126708984375,311.232879638672 848.371398925781,321.84375 819.067810058594,321.84375 C789.76416015625,321.84375 766.008911132813,311.232879638672 766.008911132813,298.143737792969 C766.008911132813,298.143737792969 766.008911132813,298.143737792969 766.008911132813,298.143737792969 L766.008911132813,298.143768310547 C766.008850097656,285.054595947266 789.764099121094,274.443756103516 819.067749023438,274.443756103516 C848.371398925781,274.443725585938 872.126647949219,285.054565429688 872.126708984375,298.143737792969 C872.126708984375,298.143737792969 872.126708984375,298.143737792969 872.126708984375,298.143737792969 " stroke="none" fill="none" stroke-width="0.75" stroke-opacity="0" />
  <path d="M895.630676269531,274.443756103516 L953.022827148438,274.443756103516 L953.022766113281,274.443756103516 C957.719360351563,274.443725585938 961.526733398438,278.251068115234 961.526733398438,282.947662353516 C961.526733398438,282.947662353516 961.526733398438,282.947692871094 961.526733398438,282.947692871094 L961.526733398438,282.947692871094 L961.526733398438,313.339813232422 L961.526733398438,313.339813232422 C961.526733398438,318.036407470703 957.719421386719,321.84375 953.022827148438,321.84375 L953.022827148438,321.84375 L895.630676269531,321.84375 L895.630676269531,321.84375 C890.93408203125,321.84375 887.126770019531,318.036407470703 887.126770019531,313.339813232422 L887.126770019531,282.947692871094 L887.126708984375,282.947692871094 C887.126708984375,278.251098632813 890.93408203125,274.443756103516 895.630676269531,274.443725585938 " stroke="none" fill="#F2E279" fill-rule="evenodd" stroke-width="0" fill-opacity="1" />
  <text x="8.73152160644531" y="36.8967208862305" dx="0" dy="0" font-family="Arial" font-size="8.99999973177911pt" fill="#000000" style="text-anchor:start" transform="matrix(0.750000 0.000000 0.000000 0.750000 887.126770019531 274.443756103516)">Table To Excel</text>
  <path d="M895.630676269531,274.443756103516 L953.022827148438,274.443756103516 L953.022766113281,274.443756103516 C957.719360351563,274.443725585938 961.526733398438,278.251068115234 961.526733398438,282.947662353516 C961.526733398438,282.947662353516 961.526733398438,282.947692871094 961.526733398438,282.947692871094 L961.526733398438,282.947692871094 L961.526733398438,313.339813232422 L961.526733398438,313.339813232422 C961.526733398438,318.036407470703 957.719421386719,321.84375 953.022827148438,321.84375 L953.022827148438,321.84375 L895.630676269531,321.84375 L895.630676269531,321.84375 C890.93408203125,321.84375 887.126770019531,318.036407470703 887.126770019531,313.339813232422 L887.126770019531,282.947692871094 L887.126708984375,282.947692871094 C887.126708984375,278.251098632813 890.93408203125,274.443756103516 895.630676269531,274.443725585938 " stroke="none" fill="none" stroke-width="0.75" stroke-opacity="0" />
  <path d="M1050.92663574219,298.612487792969 C1050.92663574219,311.701629638672 1034.27160644531,322.3125 1013.72674560547,322.3125 C993.181701660156,322.3125 976.526733398438,311.70166015625 976.526672363281,298.612518310547 L976.526672363281,298.612518310547 C976.526672363281,285.523345947266 993.181701660156,274.912506103516 1013.72668457031,274.912506103516 C1034.27160644531,274.912475585938 1050.92663574219,285.523315429688 1050.92663574219,298.612487792969 C1050.92663574219,298.612487792969 1050.92663574219,298.612487792969 1050.92663574219,298.612487792969 " stroke="none" fill="#83CC7C" fill-rule="evenodd" stroke-width="0" fill-opacity="1" />
  <text x="11.7268552780151" y="36.8967208862305" dx="0" dy="0" font-family="Arial" font-size="8.99999973177911pt" fill="#000000" style="text-anchor:start" transform="matrix(0.750000 0.000000 0.000000 0.750000 976.526733398438 274.912506103516)">Output Table</text>
  <path d="M1050.92663574219,298.612487792969 C1050.92663574219,311.701629638672 1034.27160644531,322.3125 1013.72674560547,322.3125 C993.181701660156,322.3125 976.526733398438,311.70166015625 976.526672363281,298.612518310547 L976.526672363281,298.612518310547 C976.526672363281,285.523345947266 993.181701660156,274.912506103516 1013.72668457031,274.912506103516 C1034.27160644531,274.912475585938 1050.92663574219,285.523315429688 1050.92663574219,298.612487792969 C1050.92663574219,298.612487792969 1050.92663574219,298.612487792969 1050.92663574219,298.612487792969 " stroke="none" fill="none" stroke-width="0.75" stroke-opacity="0" />
  <path d="M314.203948974609,274.443756103516 L371.596069335938,274.443756103516 L371.596038818359,274.443756103516 C376.292633056641,274.443725585938 380.099975585938,278.251068115234 380.099975585938,282.947662353516 C380.099975585938,282.947662353516 380.099975585938,282.947692871094 380.099975585938,282.947692871094 L380.100006103516,282.947692871094 L380.100006103516,313.339813232422 L380.099975585938,313.339813232422 C380.099975585938,318.036407470703 376.292663574219,321.84375 371.596069335938,321.84375 L371.596069335938,321.84375 L314.203948974609,321.84375 L314.203948974609,321.84375 C309.507354736328,321.84375 305.700012207031,318.036407470703 305.700012207031,313.339813232422 L305.700012207031,282.947692871094 L305.699981689453,282.947692871094 C305.699981689453,278.251098632813 309.50732421875,274.443756103516 314.203918457031,274.443725585938 " stroke="none" fill="#F2E279" fill-rule="evenodd" stroke-width="0" fill-opacity="1" />
  <text x="21.6281890869141" y="36.8967208862305" dx="0" dy="0" font-family="Arial" font-size="8.99999973177911pt" fill="#000000" style="text-anchor:start" transform="matrix(0.750000 0.000000 0.000000 0.750000 305.700012207031 274.443756103516)">Join Field</text>
  <path d="M314.203948974609,274.443756103516 L371.596069335938,274.443756103516 L371.596038818359,274.443756103516 C376.292633056641,274.443725585938 380.099975585938,278.251068115234 380.099975585938,282.947662353516 C380.099975585938,282.947662353516 380.099975585938,282.947692871094 380.099975585938,282.947692871094 L380.100006103516,282.947692871094 L380.100006103516,313.339813232422 L380.099975585938,313.339813232422 C380.099975585938,318.036407470703 376.292663574219,321.84375 371.596069335938,321.84375 L371.596069335938,321.84375 L314.203948974609,321.84375 L314.203948974609,321.84375 C309.507354736328,321.84375 305.700012207031,318.036407470703 305.700012207031,313.339813232422 L305.700012207031,282.947692871094 L305.699981689453,282.947692871094 C305.699981689453,278.251098632813 309.50732421875,274.443756103516 314.203918457031,274.443725585938 " stroke="none" fill="none" stroke-width="0.75" stroke-opacity="0" />
  <path d="M475.308837890625,298.143737792969 C475.308837890625,311.232879638672 457.353485107422,321.84375 435.204406738281,321.84375 C413.055358886719,321.84375 395.099975585938,311.232879638672 395.099975585938,298.143737792969 C395.099975585938,298.143737792969 395.099975585938,298.143737792969 395.099975585938,298.143737792969 L395.099945068359,298.143768310547 C395.099945068359,285.054595947266 413.055297851563,274.443756103516 435.204376220703,274.443756103516 C457.353454589844,274.443725585938 475.308837890625,285.054565429688 475.308837890625,298.143737792969 C475.308837890625,298.143737792969 475.308837890625,298.143737792969 475.308837890625,298.143737792969 " stroke="none" fill="#83CC7C" fill-rule="evenodd" stroke-width="0" fill-opacity="1" />
  <text x="14.4895219802856" y="36.8967208862305" dx="0" dy="0" font-family="Arial" font-size="8.99999973177911pt" fill="#000000" style="text-anchor:start" transform="matrix(0.750000 0.000000 0.000000 0.750000 395.099975585938 274.443756103516)">Places joined</text>
  <path d="M475.308837890625,298.143737792969 C475.308837890625,311.232879638672 457.353485107422,321.84375 435.204406738281,321.84375 C413.055358886719,321.84375 395.099975585938,311.232879638672 395.099975585938,298.143737792969 C395.099975585938,298.143737792969 395.099975585938,298.143737792969 395.099975585938,298.143737792969 L395.099945068359,298.143768310547 C395.099945068359,285.054595947266 413.055297851563,274.443756103516 435.204376220703,274.443756103516 C457.353454589844,274.443725585938 475.308837890625,285.054565429688 475.308837890625,298.143737792969 C475.308837890625,298.143737792969 475.308837890625,298.143737792969 475.308837890625,298.143737792969 " stroke="none" fill="none" stroke-width="0.75" stroke-opacity="0" />
  <path d="M283.199951171875,298.612487792969 C283.199951171875,311.701629638672 266.544952392578,322.3125 246,322.3125 C225.455001831055,322.3125 208.799987792969,311.70166015625 208.79997253418,298.612518310547 L208.79997253418,298.612518310547 C208.799957275391,285.523345947266 225.454956054688,274.912506103516 245.999938964844,274.912506103516 C266.544921875,274.912475585938 283.199951171875,285.523315429688 283.199951171875,298.612487792969 C283.199951171875,298.612487792969 283.199951171875,298.612487792969 283.199951171875,298.612487792969 " stroke="none" fill="#70AECC" fill-rule="evenodd" stroke-width="0" fill-opacity="1" />
  <text x="20.4015235900879" y="36.8967208862305" dx="0" dy="0" font-family="Arial" font-size="8.99999973177911pt" fill="#000000" style="text-anchor:start" transform="matrix(0.750000 0.000000 0.000000 0.750000 208.799987792969 274.912506103516)">Join Table</text>
  <path d="M283.199951171875,298.612487792969 C283.199951171875,311.701629638672 266.544952392578,322.3125 246,322.3125 C225.455001831055,322.3125 208.799987792969,311.70166015625 208.79997253418,298.612518310547 L208.79997253418,298.612518310547 C208.799957275391,285.523345947266 225.454956054688,274.912506103516 245.999938964844,274.912506103516 C266.544921875,274.912475585938 283.199951171875,285.523315429688 283.199951171875,298.612487792969 C283.199951171875,298.612487792969 283.199951171875,298.612487792969 283.199951171875,298.612487792969 " stroke="none" fill="none" stroke-width="0.75" stroke-opacity="0" />
  <path d="M96.8999862670898,235.743743896484 C96.8999862670898,248.832901000977 80.2449798583984,259.443756103516 59.7000122070313,259.443756103516 C39.1550254821777,259.443756103516 22.5000133514404,248.832916259766 22.4999961853027,235.743774414063 L22.4999942779541,235.743774414063 C22.4999771118164,222.65461730957 39.154972076416,212.043762207031 59.6999626159668,212.043762207031 C80.2449493408203,212.043746948242 96.8999633789063,222.654586791992 96.8999862670898,235.743759155273 C96.8999862670898,235.743759155273 96.8999862670898,235.743759155273 96.8999862670898,235.743759155273 " stroke="none" fill="#70AECC" fill-rule="evenodd" stroke-width="0" fill-opacity="1" />
  <text x="12.9535217285156" y="29.9967193603516" dx="0" dy="0" font-family="Arial" font-size="8.99999973177911pt" fill="#000000" style="text-anchor:start" transform="matrix(0.750000 0.000000 0.000000 0.750000 22.5 212.043762207031)">Input Feature </text>
  <text x="30.9728565216064" y="43.7967185974121" dx="0" dy="0" font-family="Arial" font-size="8.99999973177911pt" fill="#000000" style="text-anchor:start" transform="matrix(0.750000 0.000000 0.000000 0.750000 22.5 212.043762207031)">Class</text>
  <path d="M96.8999862670898,235.743743896484 C96.8999862670898,248.832901000977 80.2449798583984,259.443756103516 59.7000122070313,259.443756103516 C39.1550254821777,259.443756103516 22.5000133514404,248.832916259766 22.4999961853027,235.743774414063 L22.4999942779541,235.743774414063 C22.4999771118164,222.65461730957 39.154972076416,212.043762207031 59.6999626159668,212.043762207031 C80.2449493408203,212.043746948242 96.8999633789063,222.654586791992 96.8999862670898,235.743759155273 C96.8999862670898,235.743759155273 96.8999862670898,235.743759155273 96.8999862670898,235.743759155273 " stroke="none" fill="none" stroke-width="0.75" stroke-opacity="0" />
  <path d="M283.199951171875,361.949981689453 C283.199951171875,375.039123535156 266.544952392578,385.649993896484 246,385.649993896484 C225.455001831055,385.649993896484 208.799987792969,375.039154052734 208.79997253418,361.950012207031 L208.79997253418,361.950012207031 C208.799957275391,348.86083984375 225.454956054688,338.25 245.999938964844,338.25 C266.544921875,338.249969482422 283.199951171875,348.860809326172 283.199951171875,361.949981689453 C283.199951171875,361.949981689453 283.199951171875,361.949981689453 283.199951171875,361.949981689453 " stroke="none" fill="#52C0CC" fill-rule="evenodd" stroke-width="0" fill-opacity="1" />
  <text x="7.95352268218994" y="36.8967208862305" dx="0" dy="0" font-family="Arial" font-size="8.99999973177911pt" fill="#000000" style="text-anchor:start" transform="matrix(0.750000 0.000000 0.000000 0.750000 208.799987792969 338.25)">Input Join Field</text>
  <path d="M283.199951171875,361.949981689453 C283.199951171875,375.039123535156 266.544952392578,385.649993896484 246,385.649993896484 C225.455001831055,385.649993896484 208.799987792969,375.039154052734 208.79997253418,361.950012207031 L208.79997253418,361.950012207031 C208.799957275391,348.86083984375 225.454956054688,338.25 245.999938964844,338.25 C266.544921875,338.249969482422 283.199951171875,348.860809326172 283.199951171875,361.949981689453 C283.199951171875,361.949981689453 283.199951171875,361.949981689453 283.199951171875,361.949981689453 " stroke="none" fill="none" stroke-width="0.75" stroke-opacity="0" />
  <path d="M283.199951171875,425.287506103516 C283.199951171875,438.376647949219 266.544952392578,448.987518310547 246,448.987518310547 C225.455001831055,448.987518310547 208.799987792969,438.376678466797 208.79997253418,425.287536621094 L208.79997253418,425.287536621094 C208.799957275391,412.198364257813 225.454956054688,401.587524414063 245.999938964844,401.587524414063 C266.544921875,401.587493896484 283.199951171875,412.198333740234 283.199951171875,425.287506103516 C283.199951171875,425.287506103516 283.199951171875,425.287506103516 283.199951171875,425.287506103516 " stroke="none" fill="#52C0CC" fill-rule="evenodd" stroke-width="0" fill-opacity="1" />
  <text x="5.72818899154663" y="36.8967208862305" dx="0" dy="0" font-family="Arial" font-size="8.99999973177911pt" fill="#000000" style="text-anchor:start" transform="matrix(0.750000 0.000000 0.000000 0.750000 208.799987792969 401.587524414063)">Join Table Field</text>
  <path d="M283.199951171875,425.287506103516 C283.199951171875,438.376647949219 266.544952392578,448.987518310547 246,448.987518310547 C225.455001831055,448.987518310547 208.799987792969,438.376678466797 208.79997253418,425.287536621094 L208.79997253418,425.287536621094 C208.799957275391,412.198364257813 225.454956054688,401.587524414063 245.999938964844,401.587524414063 C266.544921875,401.587493896484 283.199951171875,412.198333740234 283.199951171875,425.287506103516 C283.199951171875,425.287506103516 283.199951171875,425.287506103516 283.199951171875,425.287506103516 " stroke="none" fill="none" stroke-width="0.75" stroke-opacity="0" />
  <path d="M895.630676269531,148.471878051758 L953.022827148438,148.471878051758 L953.022766113281,148.471878051758 C957.719360351563,148.471862792969 961.526733398438,152.279205322266 961.526733398438,156.975799560547 C961.526733398438,156.975799560547 961.526733398438,156.975814819336 961.526733398438,156.975814819336 L961.526733398438,156.975814819336 L961.526733398438,187.367935180664 L961.526733398438,187.367935180664 C961.526733398438,192.064529418945 957.719421386719,195.871871948242 953.022827148438,195.871871948242 L953.022827148438,195.871871948242 L895.630676269531,195.871871948242 L895.630676269531,195.871871948242 C890.93408203125,195.871871948242 887.126770019531,192.064529418945 887.126770019531,187.367935180664 L887.126770019531,156.975814819336 L887.126708984375,156.975814819336 C887.126708984375,152.279220581055 890.93408203125,148.471878051758 895.630676269531,148.471862792969 " stroke="none" fill="#F2E279" fill-rule="evenodd" stroke-width="0" fill-opacity="1" />
  <text x="20.6361904144287" y="29.9967193603516" dx="0" dy="0" font-family="Arial" font-size="8.99999973177911pt" fill="#000000" style="text-anchor:start" transform="matrix(0.750000 0.000000 0.000000 0.750000 887.126770019531 148.471878051758)">Summary </text>
  <text x="22.2995223999023" y="43.7967185974121" dx="0" dy="0" font-family="Arial" font-size="8.99999973177911pt" fill="#000000" style="text-anchor:start" transform="matrix(0.750000 0.000000 0.000000 0.750000 887.126770019531 148.471878051758)">Statistics</text>
  <path d="M895.630676269531,148.471878051758 L953.022827148438,148.471878051758 L953.022766113281,148.471878051758 C957.719360351563,148.471862792969 961.526733398438,152.279205322266 961.526733398438,156.975799560547 C961.526733398438,156.975799560547 961.526733398438,156.975814819336 961.526733398438,156.975814819336 L961.526733398438,156.975814819336 L961.526733398438,187.367935180664 L961.526733398438,187.367935180664 C961.526733398438,192.064529418945 957.719421386719,195.871871948242 953.022827148438,195.871871948242 L953.022827148438,195.871871948242 L895.630676269531,195.871871948242 L895.630676269531,195.871871948242 C890.93408203125,195.871871948242 887.126770019531,192.064529418945 887.126770019531,187.367935180664 L887.126770019531,156.975814819336 L887.126708984375,156.975814819336 C887.126708984375,152.279220581055 890.93408203125,148.471878051758 895.630676269531,148.471862792969 " stroke="none" fill="none" stroke-width="0.75" stroke-opacity="0" />
  <path d="M1054.67663574219,172.171859741211 C1054.67663574219,185.261016845703 1038.02160644531,195.871871948242 1017.47674560547,195.871871948242 C996.931701660156,195.871871948242 980.276733398438,185.261032104492 980.276672363281,172.171890258789 L980.276672363281,172.171890258789 C980.276672363281,159.082733154297 996.931701660156,148.471878051758 1017.47668457031,148.471878051758 C1038.02160644531,148.471862792969 1054.67663574219,159.082702636719 1054.67663574219,172.171875 C1054.67663574219,172.171875 1054.67663574219,172.171875 1054.67663574219,172.171875 " stroke="none" fill="#83CC7C" fill-rule="evenodd" stroke-width="0" fill-opacity="1" />
  <text x="5.29952239990234" y="29.9967193603516" dx="0" dy="0" font-family="Arial" font-size="8.99999973177911pt" fill="#000000" style="text-anchor:start" transform="matrix(0.750000 0.000000 0.000000 0.750000 980.276733398438 148.471878051758)">Summary Stats </text>
  <text x="32.9648551940918" y="43.7967185974121" dx="0" dy="0" font-family="Arial" font-size="8.99999973177911pt" fill="#000000" style="text-anchor:start" transform="matrix(0.750000 0.000000 0.000000 0.750000 980.276733398438 148.471878051758)">Table</text>
  <path d="M1054.67663574219,172.171859741211 C1054.67663574219,185.261016845703 1038.02160644531,195.871871948242 1017.47674560547,195.871871948242 C996.931701660156,195.871871948242 980.276733398438,185.261032104492 980.276672363281,172.171890258789 L980.276672363281,172.171890258789 C980.276672363281,159.082733154297 996.931701660156,148.471878051758 1017.47668457031,148.471878051758 C1038.02160644531,148.471862792969 1054.67663574219,159.082702636719 1054.67663574219,172.171875 C1054.67663574219,172.171875 1054.67663574219,172.171875 1054.67663574219,172.171875 " stroke="none" fill="none" stroke-width="0.75" stroke-opacity="0" />
  <path d="M856.267822265625,46.1999931335449 C856.267822265625,59.2891387939453 839.61279296875,69.8999938964844 819.06787109375,69.8999938964844 C798.522827148438,69.9000015258789 781.867858886719,59.2891578674316 781.867797851563,46.2000122070313 L781.867797851563,46.2000160217285 C781.867797851563,33.1108665466309 798.522827148438,22.5000076293945 819.067810058594,22.5 C839.61279296875,22.4999885559082 856.267822265625,33.1108322143555 856.267822265625,46.1999969482422 C856.267822265625,46.1999969482422 856.267822265625,46.1999969482422 856.267822265625,46.1999969482422 " stroke="none" fill="#52C0CC" fill-rule="evenodd" stroke-width="0" fill-opacity="1" />
  <text x="19.2961902618408" y="36.8967208862305" dx="0" dy="0" font-family="Arial" font-size="8.99999973177911pt" fill="#000000" style="text-anchor:start" transform="matrix(0.750000 0.000000 0.000000 0.750000 781.867858886719 22.5)">Case field</text>
  <path d="M856.267822265625,46.1999931335449 C856.267822265625,59.2891387939453 839.61279296875,69.8999938964844 819.06787109375,69.8999938964844 C798.522827148438,69.9000015258789 781.867858886719,59.2891578674316 781.867797851563,46.2000122070313 L781.867797851563,46.2000160217285 C781.867797851563,33.1108665466309 798.522827148438,22.5000076293945 819.067810058594,22.5 C839.61279296875,22.4999885559082 856.267822265625,33.1108322143555 856.267822265625,46.1999969482422 C856.267822265625,46.1999969482422 856.267822265625,46.1999969482422 856.267822265625,46.1999969482422 " stroke="none" fill="none" stroke-width="0.75" stroke-opacity="0" />
  <path d="M1081.9306640625,148.471878051758 L1139.32275390625,148.471878051758 L1139.32275390625,148.471878051758 C1144.01928710938,148.471862792969 1147.82666015625,152.279205322266 1147.82666015625,156.975799560547 C1147.82666015625,156.975799560547 1147.82666015625,156.975814819336 1147.82666015625,156.975814819336 L1147.82666015625,156.975814819336 L1147.82666015625,187.367935180664 L1147.82666015625,187.367935180664 C1147.82666015625,192.064529418945 1144.01940917969,195.871871948242 1139.32275390625,195.871871948242 L1139.32275390625,195.871871948242 L1081.9306640625,195.871871948242 L1081.9306640625,195.871871948242 C1077.23400878906,195.871871948242 1073.4267578125,192.064529418945 1073.4267578125,187.367935180664 L1073.4267578125,156.975814819336 L1073.42663574219,156.975814819336 C1073.42663574219,152.279220581055 1077.23400878906,148.471878051758 1081.9306640625,148.471862792969 " stroke="none" fill="#F2E279" fill-rule="evenodd" stroke-width="0" fill-opacity="1" />
  <text x="8.73152160644531" y="29.9967193603516" dx="0" dy="0" font-family="Arial" font-size="8.99999973177911pt" fill="#000000" style="text-anchor:start" transform="matrix(0.750000 0.000000 0.000000 0.750000 1073.4267578125 148.471878051758)">Table To Excel </text>
  <text x="40.9768562316895" y="43.7967185974121" dx="0" dy="0" font-family="Arial" font-size="8.99999973177911pt" fill="#000000" style="text-anchor:start" transform="matrix(0.750000 0.000000 0.000000 0.750000 1073.4267578125 148.471878051758)">(2)</text>
  <path d="M1081.9306640625,148.471878051758 L1139.32275390625,148.471878051758 L1139.32275390625,148.471878051758 C1144.01928710938,148.471862792969 1147.82666015625,152.279205322266 1147.82666015625,156.975799560547 C1147.82666015625,156.975799560547 1147.82666015625,156.975814819336 1147.82666015625,156.975814819336 L1147.82666015625,156.975814819336 L1147.82666015625,187.367935180664 L1147.82666015625,187.367935180664 C1147.82666015625,192.064529418945 1144.01940917969,195.871871948242 1139.32275390625,195.871871948242 L1139.32275390625,195.871871948242 L1081.9306640625,195.871871948242 L1081.9306640625,195.871871948242 C1077.23400878906,195.871871948242 1073.4267578125,192.064529418945 1073.4267578125,187.367935180664 L1073.4267578125,156.975814819336 L1073.42663574219,156.975814819336 C1073.42663574219,152.279220581055 1077.23400878906,148.471878051758 1081.9306640625,148.471862792969 " stroke="none" fill="none" stroke-width="0.75" stroke-opacity="0" />
  <path d="M1237.2265625,172.640609741211 C1237.2265625,185.729766845703 1220.57153320313,196.340621948242 1200.02661132813,196.340621948242 C1179.48156738281,196.340621948242 1162.82666015625,185.729782104492 1162.82653808594,172.640640258789 L1162.82653808594,172.640640258789 C1162.82653808594,159.551483154297 1179.48156738281,148.940628051758 1200.02661132813,148.940628051758 C1220.57153320313,148.940612792969 1237.2265625,159.551452636719 1237.2265625,172.640625 C1237.2265625,172.640625 1237.2265625,172.640625 1237.2265625,172.640625 " stroke="none" fill="#83CC7C" fill-rule="evenodd" stroke-width="0" fill-opacity="1" />
  <text x="0.293522328138351" y="29.9967193603516" dx="0" dy="0" font-family="Arial" font-size="8.99999973177911pt" fill="#000000" style="text-anchor:start" transform="matrix(0.750000 0.000000 0.000000 0.750000 1162.82666015625 148.940628051758)">Output Summary </text>
  <text x="32.9648551940918" y="43.7967185974121" dx="0" dy="0" font-family="Arial" font-size="8.99999973177911pt" fill="#000000" style="text-anchor:start" transform="matrix(0.750000 0.000000 0.000000 0.750000 1162.82666015625 148.940628051758)">Table</text>
  <path d="M1237.2265625,172.640609741211 C1237.2265625,185.729766845703 1220.57153320313,196.340621948242 1200.02661132813,196.340621948242 C1179.48156738281,196.340621948242 1162.82666015625,185.729782104492 1162.82653808594,172.640640258789 L1162.82653808594,172.640640258789 C1162.82653808594,159.551483154297 1179.48156738281,148.940628051758 1200.02661132813,148.940628051758 C1220.57153320313,148.940612792969 1237.2265625,159.551452636719 1237.2265625,172.640625 C1237.2265625,172.640625 1237.2265625,172.640625 1237.2265625,172.640625 " stroke="none" fill="none" stroke-width="0.75" stroke-opacity="0" />
  <path d="M1058.42663574219,281.474975585938 C1058.42663574219,285.617126464844 1055.06884765625,288.974975585938 1050.9267578125,288.974975585938 C1046.78454589844,288.975006103516 1043.4267578125,285.617126464844 1043.4267578125,281.475006103516 L1043.42663574219,281.475006103516 C1043.42663574219,277.332855224609 1046.78454589844,273.975006103516 1050.92663574219,273.975006103516 C1055.06884765625,273.974975585938 1058.42663574219,277.332855224609 1058.42663574219,281.474975585938 C1058.42663574219,281.474975585938 1058.42663574219,281.475006103516 1058.42663574219,281.475006103516 " stroke="none" fill="none" fill-rule="evenodd" stroke-width="0" fill-opacity="0" />
  <text x="2.70618915557861" y="15.2967185974121" dx="0" dy="0" font-family="Arial" font-size="8.99999973177911pt" fill="#555555" style="text-anchor:start" font-weight="bold" transform="matrix(0.750000 0.000000 0.000000 0.750000 1043.4267578125 273.975006103516)">P</text>
  <path d="M1058.42663574219,281.474975585938 C1058.42663574219,285.617126464844 1055.06884765625,288.974975585938 1050.9267578125,288.974975585938 C1046.78454589844,288.975006103516 1043.4267578125,285.617126464844 1043.4267578125,281.475006103516 L1043.42663574219,281.475006103516 C1043.42663574219,277.332855224609 1046.78454589844,273.975006103516 1050.92663574219,273.975006103516 C1055.06884765625,273.974975585938 1058.42663574219,277.332855224609 1058.42663574219,281.474975585938 C1058.42663574219,281.474975585938 1058.42663574219,281.475006103516 1058.42663574219,281.475006103516 " stroke="none" fill="none" stroke-width="0.75" stroke-opacity="0" />
  <path d="M661.608825683594,281.474975585938 C661.608825683594,285.617126464844 658.2509765625,288.974975585938 654.10888671875,288.974975585938 C649.966735839844,288.975006103516 646.60888671875,285.617126464844 646.60888671875,281.475006103516 L646.608825683594,281.475006103516 C646.608825683594,277.332855224609 649.966735839844,273.975006103516 654.108825683594,273.975006103516 C658.2509765625,273.974975585938 661.608825683594,277.332855224609 661.608825683594,281.474975585938 C661.608825683594,281.474975585938 661.608825683594,281.475006103516 661.608825683594,281.475006103516 " stroke="none" fill="none" fill-rule="evenodd" stroke-width="0" fill-opacity="0" />
  <text x="2.70618915557861" y="15.2967185974121" dx="0" dy="0" font-family="Arial" font-size="8.99999973177911pt" fill="#555555" style="text-anchor:start" font-weight="bold" transform="matrix(0.750000 0.000000 0.000000 0.750000 646.60888671875 273.975006103516)">P</text>
  <path d="M661.608825683594,281.474975585938 C661.608825683594,285.617126464844 658.2509765625,288.974975585938 654.10888671875,288.974975585938 C649.966735839844,288.975006103516 646.60888671875,285.617126464844 646.60888671875,281.475006103516 L646.608825683594,281.475006103516 C646.608825683594,277.332855224609 649.966735839844,273.975006103516 654.108825683594,273.975006103516 C658.2509765625,273.974975585938 661.608825683594,277.332855224609 661.608825683594,281.474975585938 C661.608825683594,281.474975585938 661.608825683594,281.475006103516 661.608825683594,281.475006103516 " stroke="none" fill="none" stroke-width="0.75" stroke-opacity="0" />
  <path d="M104.39998626709,218.606246948242 C104.39998626709,222.748382568359 101.042121887207,226.106246948242 96.8999938964844,226.106246948242 C92.7578582763672,226.106262207031 89.3999938964844,222.748397827148 89.3999938964844,218.606262207031 L89.3999862670898,218.606262207031 C89.3999862670898,214.464126586914 92.7578506469727,211.106262207031 96.8999786376953,211.106262207031 C101.042114257813,211.106246948242 104.399978637695,214.464111328125 104.39998626709,218.606246948242 C104.39998626709,218.606246948242 104.39998626709,218.606262207031 104.39998626709,218.606262207031 " stroke="none" fill="none" fill-rule="evenodd" stroke-width="0" fill-opacity="0" />
  <text x="2.70618915557861" y="15.2967185974121" dx="0" dy="0" font-family="Arial" font-size="8.99999973177911pt" fill="#555555" style="text-anchor:start" font-weight="bold" transform="matrix(0.750000 0.000000 0.000000 0.750000 89.3999938964844 211.106262207031)">P</text>
  <path d="M104.39998626709,218.606246948242 C104.39998626709,222.748382568359 101.042121887207,226.106246948242 96.8999938964844,226.106246948242 C92.7578582763672,226.106262207031 89.3999938964844,222.748397827148 89.3999938964844,218.606262207031 L89.3999862670898,218.606262207031 C89.3999862670898,214.464126586914 92.7578506469727,211.106262207031 96.8999786376953,211.106262207031 C101.042114257813,211.106246948242 104.399978637695,214.464111328125 104.39998626709,218.606246948242 C104.39998626709,218.606246948242 104.39998626709,218.606262207031 104.39998626709,218.606262207031 " stroke="none" fill="none" stroke-width="0.75" stroke-opacity="0" />
  <path d="M290.699981689453,281.474975585938 C290.699981689453,285.617126464844 287.342132568359,288.974975585938 283.200012207031,288.974975585938 C279.057861328125,288.975006103516 275.700012207031,285.617126464844 275.700012207031,281.475006103516 L275.699981689453,281.475006103516 C275.699981689453,277.332855224609 279.057861328125,273.975006103516 283.199981689453,273.975006103516 C287.342132568359,273.974975585938 290.699981689453,277.332855224609 290.699981689453,281.474975585938 C290.699981689453,281.474975585938 290.699981689453,281.475006103516 290.699981689453,281.475006103516 " stroke="none" fill="none" fill-rule="evenodd" stroke-width="0" fill-opacity="0" />
  <text x="2.70618915557861" y="15.2967185974121" dx="0" dy="0" font-family="Arial" font-size="8.99999973177911pt" fill="#555555" style="text-anchor:start" font-weight="bold" transform="matrix(0.750000 0.000000 0.000000 0.750000 275.700012207031 273.975006103516)">P</text>
  <path d="M290.699981689453,281.474975585938 C290.699981689453,285.617126464844 287.342132568359,288.974975585938 283.200012207031,288.974975585938 C279.057861328125,288.975006103516 275.700012207031,285.617126464844 275.700012207031,281.475006103516 L275.699981689453,281.475006103516 C275.699981689453,277.332855224609 279.057861328125,273.975006103516 283.199981689453,273.975006103516 C287.342132568359,273.974975585938 290.699981689453,277.332855224609 290.699981689453,281.474975585938 C290.699981689453,281.474975585938 290.699981689453,281.475006103516 290.699981689453,281.475006103516 " stroke="none" fill="none" stroke-width="0.75" stroke-opacity="0" />
  <path d="M290.699981689453,408.149993896484 C290.699981689453,412.292144775391 287.342132568359,415.649993896484 283.200012207031,415.649993896484 C279.057861328125,415.650024414063 275.700012207031,412.292144775391 275.700012207031,408.150024414063 L275.699981689453,408.150024414063 C275.699981689453,404.007873535156 279.057861328125,400.650024414063 283.199981689453,400.650024414063 C287.342132568359,400.649993896484 290.699981689453,404.007873535156 290.699981689453,408.149993896484 C290.699981689453,408.149993896484 290.699981689453,408.150024414063 290.699981689453,408.150024414063 " stroke="none" fill="none" fill-rule="evenodd" stroke-width="0" fill-opacity="0" />
  <text x="2.70618915557861" y="15.2967185974121" dx="0" dy="0" font-family="Arial" font-size="8.99999973177911pt" fill="#555555" style="text-anchor:start" font-weight="bold" transform="matrix(0.750000 0.000000 0.000000 0.750000 275.700012207031 400.650024414063)">P</text>
  <path d="M290.699981689453,408.149993896484 C290.699981689453,412.292144775391 287.342132568359,415.649993896484 283.200012207031,415.649993896484 C279.057861328125,415.650024414063 275.700012207031,412.292144775391 275.700012207031,408.150024414063 L275.699981689453,408.150024414063 C275.699981689453,404.007873535156 279.057861328125,400.650024414063 283.199981689453,400.650024414063 C287.342132568359,400.649993896484 290.699981689453,404.007873535156 290.699981689453,408.149993896484 C290.699981689453,408.149993896484 290.699981689453,408.150024414063 290.699981689453,408.150024414063 " stroke="none" fill="none" stroke-width="0.75" stroke-opacity="0" />
  <path d="M290.699981689453,344.812469482422 C290.699981689453,348.954620361328 287.342132568359,352.312469482422 283.200012207031,352.312469482422 C279.057861328125,352.3125 275.700012207031,348.954620361328 275.700012207031,344.8125 L275.699981689453,344.8125 C275.699981689453,340.670349121094 279.057861328125,337.3125 283.199981689453,337.3125 C287.342132568359,337.312469482422 290.699981689453,340.670349121094 290.699981689453,344.812469482422 C290.699981689453,344.812469482422 290.699981689453,344.8125 290.699981689453,344.8125 " stroke="none" fill="none" fill-rule="evenodd" stroke-width="0" fill-opacity="0" />
  <text x="2.70618915557861" y="15.2967185974121" dx="0" dy="0" font-family="Arial" font-size="8.99999973177911pt" fill="#555555" style="text-anchor:start" font-weight="bold" transform="matrix(0.750000 0.000000 0.000000 0.750000 275.700012207031 337.3125)">P</text>
  <path d="M290.699981689453,344.812469482422 C290.699981689453,348.954620361328 287.342132568359,352.312469482422 283.200012207031,352.312469482422 C279.057861328125,352.3125 275.700012207031,348.954620361328 275.700012207031,344.8125 L275.699981689453,344.8125 C275.699981689453,340.670349121094 279.057861328125,337.3125 283.199981689453,337.3125 C287.342132568359,337.312469482422 290.699981689453,340.670349121094 290.699981689453,344.812469482422 C290.699981689453,344.812469482422 290.699981689453,344.8125 290.699981689453,344.8125 " stroke="none" fill="none" stroke-width="0.75" stroke-opacity="0" />
  <path d="M1244.7265625,155.503112792969 C1244.7265625,159.645248413086 1241.36877441406,163.003112792969 1237.22668457031,163.003112792969 C1233.08447265625,163.003128051758 1229.72668457031,159.645263671875 1229.72668457031,155.503128051758 L1229.7265625,155.503128051758 C1229.7265625,151.360992431641 1233.08447265625,148.003128051758 1237.2265625,148.003128051758 C1241.36877441406,148.003112792969 1244.7265625,151.360977172852 1244.7265625,155.503112792969 C1244.7265625,155.503112792969 1244.7265625,155.503128051758 1244.7265625,155.503128051758 " stroke="none" fill="none" fill-rule="evenodd" stroke-width="0" fill-opacity="0" />
  <text x="2.70618915557861" y="15.2967185974121" dx="0" dy="0" font-family="Arial" font-size="8.99999973177911pt" fill="#555555" style="text-anchor:start" font-weight="bold" transform="matrix(0.750000 0.000000 0.000000 0.750000 1229.72668457031 148.003128051758)">P</text>
  <path d="M1244.7265625,155.503112792969 C1244.7265625,159.645248413086 1241.36877441406,163.003112792969 1237.22668457031,163.003112792969 C1233.08447265625,163.003128051758 1229.72668457031,159.645263671875 1229.72668457031,155.503128051758 L1229.7265625,155.503128051758 C1229.7265625,151.360992431641 1233.08447265625,148.003128051758 1237.2265625,148.003128051758 C1241.36877441406,148.003112792969 1244.7265625,151.360977172852 1244.7265625,155.503112792969 C1244.7265625,155.503112792969 1244.7265625,155.503128051758 1244.7265625,155.503128051758 " stroke="none" fill="none" stroke-width="0.75" stroke-opacity="0" />
  <path d="M863.767822265625,29.0624980926514 C863.767822265625,33.2046318054199 860.409973144531,36.5624961853027 856.267883300781,36.5624961853027 C852.125732421875,36.5625 848.767883300781,33.2046394348145 848.767883300781,29.0625038146973 L848.767822265625,29.0625057220459 C848.767822265625,24.9203701019287 852.125732421875,21.5625019073486 856.267822265625,21.5625 C860.409973144531,21.5624923706055 863.767822265625,24.9203510284424 863.767822265625,29.0624980926514 C863.767822265625,29.0624980926514 863.767822265625,29.0625 863.767822265625,29.0625 " stroke="none" fill="none" fill-rule="evenodd" stroke-width="0" fill-opacity="0" />
  <text x="2.70618915557861" y="15.2967185974121" dx="0" dy="0" font-family="Arial" font-size="8.99999973177911pt" fill="#555555" style="text-anchor:start" font-weight="bold" transform="matrix(0.750000 0.000000 0.000000 0.750000 848.767883300781 21.5625)">P</text>
  <path d="M863.767822265625,29.0624980926514 C863.767822265625,33.2046318054199 860.409973144531,36.5624961853027 856.267883300781,36.5624961853027 C852.125732421875,36.5625 848.767883300781,33.2046394348145 848.767883300781,29.0625038146973 L848.767822265625,29.0625057220459 C848.767822265625,24.9203701019287 852.125732421875,21.5625019073486 856.267822265625,21.5625 C860.409973144531,21.5624923706055 863.767822265625,24.9203510284424 863.767822265625,29.0624980926514 C863.767822265625,29.0624980926514 863.767822265625,29.0625 863.767822265625,29.0625 " stroke="none" fill="none" stroke-width="0.75" stroke-opacity="0" />
</svg>